<?xml version="1.0" encoding="UTF-8" standalone="no"?>
<!-- Created with Inkscape (http://www.inkscape.org/) -->

<svg
   xmlns:dc="http://purl.org/dc/elements/1.1/"
   xmlns:cc="http://creativecommons.org/ns#"
   xmlns:rdf="http://www.w3.org/1999/02/22-rdf-syntax-ns#"
   xmlns:svg="http://www.w3.org/2000/svg"
   xmlns="http://www.w3.org/2000/svg"
   xmlns:sodipodi="http://sodipodi.sourceforge.net/DTD/sodipodi-0.dtd"
   xmlns:inkscape="http://www.inkscape.org/namespaces/inkscape"
   width="200"
   height="200"
   id="svg2"
   version="1.1"
   inkscape:version="0.48.4 r9939"
   sodipodi:docname="affiliates.svg">
  <defs
     id="defs4" />
  <sodipodi:namedview
     id="base"
     pagecolor="#ffffff"
     bordercolor="#666666"
     borderopacity="1.0"
     inkscape:pageopacity="0.0"
     inkscape:pageshadow="2"
     inkscape:zoom="1.4142136"
     inkscape:cx="398.24999"
     inkscape:cy="281.62225"
     inkscape:document-units="px"
     inkscape:current-layer="layer1"
     showgrid="false"
     showguides="true"
     inkscape:guide-bbox="true"
     inkscape:window-width="1680"
     inkscape:window-height="995"
     inkscape:window-x="0"
     inkscape:window-y="30"
     inkscape:window-maximized="1"
     fit-margin-top="0"
     fit-margin-left="0"
     fit-margin-right="0"
     fit-margin-bottom="0">
    <sodipodi:guide
       orientation="1,0"
       position="499.92449,-150.02345"
       id="guide4257" />
    <sodipodi:guide
       orientation="1,0"
       position="398.80822,-163.45848"
       id="guide4259" />
    <sodipodi:guide
       orientation="0,1"
       position="548.00775,-150.02345"
       id="guide4261" />
  </sodipodi:namedview>
  <metadata
     id="metadata7">
    <rdf:RDF>
      <cc:Work
         rdf:about="">
        <dc:format>image/svg+xml</dc:format>
        <dc:type
           rdf:resource="http://purl.org/dc/dcmitype/StillImage" />
        <dc:title />
      </cc:Work>
    </rdf:RDF>
  </metadata>
  <g
     inkscape:label="Layer 1"
     inkscape:groupmode="layer"
     id="layer1"
     transform="translate(-151.9805,-138.23176)">
    <g
       id="g3006"
       transform="matrix(0.60345495,0,0,0.60345495,60.267115,134.12413)">
      <path
         transform="matrix(1.2288162,0,0,1.2288162,-34.213261,-77.955268)"
         d="m 421.2336,203.83405 c 0,74.47856 -60.37681,134.85536 -134.85537,134.85536 -74.47855,0 -134.85536,-60.3768 -134.85536,-134.85536 0,-74.47856 60.37681,-134.855367 134.85536,-134.855367 74.47856,0 134.85537,60.376807 134.85537,134.855367 z"
         sodipodi:ry="134.85536"
         sodipodi:rx="134.85536"
         sodipodi:cy="203.83405"
         sodipodi:cx="286.37823"
         id="path3781"
         style="fill:#c83737;fill-opacity:1;stroke:none"
         sodipodi:type="arc" />
      <path
         sodipodi:nodetypes="ccccccccccc"
         transform="translate(151.9805,6.8068557)"
         inkscape:connector-curvature="0"
         id="path4356"
         d="m 51.124739,220.66646 c 39.371213,39.37121 76.499011,76.49901 110.662211,110.66221 52.52175,0.98824 90.75835,-18.58435 119.90671,-47.42827 24.68746,-22.26875 41.15196,-56.08598 47.00798,-88.15704 -28.47824,-28.47825 -55.39064,-55.39064 -86.19859,-86.19859 -11.99196,11.92737 -25.56871,25.89845 -36.14645,36.85355 -8.06711,-8.06711 -16.59912,-16.59913 -24.21841,-24.21841 -9.69872,9.1608 -16.52355,15.20532 -26.13388,24.36612 -9.3509,-9.3509 -26.06567,-26.06568 -36.416,-36.416 -14.21508,7.31814 -26.975196,13.58537 -41.099458,20.94692 -7.533681,25.24944 -17.422198,57.29291 -27.364113,89.58951 z"
         style="opacity:0.5;fill:#666666;stroke:none" />
      <g
         transform="matrix(0.90515156,0,0,0.90515156,-417.85396,-131.62334)"
         id="g4328">
        <g
           id="g4314"
           transform="matrix(0.60411409,0,0,0.60411409,271.71939,161.90221)">
          <path
             transform="matrix(1.2256637,0,0,1.2256637,202.67943,-152.04002)"
             d="m 506.99557,303.61099 c 0,22.06463 -17.88691,39.95154 -39.95153,39.95154 -22.06463,0 -39.95154,-17.88691 -39.95154,-39.95154 0,-22.06462 17.88691,-39.95153 39.95154,-39.95153 22.06462,0 39.95153,17.88691 39.95153,39.95153 z"
             sodipodi:ry="39.951534"
             sodipodi:rx="39.951534"
             sodipodi:cy="303.61099"
             sodipodi:cx="467.04404"
             id="path4292"
             style="fill:#c87137;fill-opacity:1;stroke:none"
             sodipodi:type="arc" />
          <path
             sodipodi:nodetypes="cccac"
             inkscape:connector-curvature="0"
             id="path4294"
             d="m 686.37477,389.1628 86.90313,0 -28.47464,-114.26838 c 0,0 -27.38774,1.57075 -35.87066,10.72422 -24.011,25.90901 -22.55783,103.54416 -22.55783,103.54416 z"
             style="fill:#333333;stroke:none" />
          <path
             style="fill:#333333;stroke:none"
             d="m 868.72038,389.1628 -86.90313,0 28.47464,-114.26838 c 0,0 27.38774,1.57075 35.87066,10.72422 24.011,25.90901 22.55783,103.54416 22.55783,103.54416 z"
             id="path4296"
             inkscape:connector-curvature="0"
             sodipodi:nodetypes="cccac" />
          <path
             inkscape:connector-curvature="0"
             id="path4298"
             d="m 777.12557,374.21085 18.81344,-77.23411 -19.80363,-25.2496 -15.84288,27.22998 z"
             style="fill:#37c8ab;stroke:none" />
          <path
             inkscape:connector-curvature="0"
             id="path4300"
             d="m 814.7139,322.91142 39.24928,-1.09025 -17.0807,9.81232 z"
             style="fill:#cccccc;stroke:none" />
        </g>
        <g
           id="g4321"
           transform="matrix(0.60411409,0,0,0.60411409,271.71939,161.90221)">
          <path
             sodipodi:type="arc"
             style="fill:#c87137;fill-opacity:1;stroke:none"
             id="path4280"
             sodipodi:cx="467.04404"
             sodipodi:cy="303.61099"
             sodipodi:rx="39.951534"
             sodipodi:ry="39.951534"
             d="m 506.99557,303.61099 c 0,22.06463 -17.88691,39.95154 -39.95153,39.95154 -22.06463,0 -39.95154,-17.88691 -39.95154,-39.95154 0,-22.06462 17.88691,-39.95153 39.95154,-39.95153 22.06462,0 39.95153,17.88691 39.95153,39.95153 z"
             transform="matrix(1.2256637,0,0,1.2256637,427.53938,-152.74712)" />
          <path
             style="fill:#4d4d4d;stroke:none"
             d="m 911.23472,388.45569 86.90313,0 -28.47464,-114.26838 c 0,0 -27.38774,1.57075 -35.87066,10.72422 -24.011,25.90901 -22.55783,103.54416 -22.55783,103.54416 z"
             id="path4282"
             inkscape:connector-curvature="0"
             sodipodi:nodetypes="cccac" />
          <path
             sodipodi:nodetypes="cccac"
             inkscape:connector-curvature="0"
             id="path4284"
             d="m 1093.5803,388.45569 -86.9031,0 28.4746,-114.26838 c 0,0 27.3878,1.57075 35.8707,10.72422 24.011,25.90901 22.5578,103.54416 22.5578,103.54416 z"
             style="fill:#4d4d4d;stroke:none" />
          <path
             style="fill:#37c8ab;stroke:none"
             d="m 1001.9855,373.50374 18.8135,-77.23411 -19.8037,-25.2496 -15.84285,27.22998 z"
             id="path4286"
             inkscape:connector-curvature="0" />
          <path
             style="fill:#cccccc;stroke:none"
             d="m 1039.5739,322.20431 39.2492,-1.09025 -17.0807,9.81232 z"
             id="path4288"
             inkscape:connector-curvature="0" />
        </g>
        <g
           id="g4271"
           transform="matrix(0.60411409,0,0,0.60411409,342.63014,124.73814)">
          <path
             transform="matrix(1.2256637,0,0,1.2256637,197.72968,-70.722738)"
             d="m 506.99557,303.61099 c 0,22.06463 -17.88691,39.95154 -39.95153,39.95154 -22.06463,0 -39.95154,-17.88691 -39.95154,-39.95154 0,-22.06462 17.88691,-39.95153 39.95154,-39.95153 22.06462,0 39.95153,17.88691 39.95153,39.95153 z"
             sodipodi:ry="39.951534"
             sodipodi:rx="39.951534"
             sodipodi:cy="303.61099"
             sodipodi:cx="467.04404"
             id="path4250"
             style="fill:#c87137;fill-opacity:1;stroke:none"
             sodipodi:type="arc" />
          <path
             sodipodi:nodetypes="cccac"
             inkscape:connector-curvature="0"
             id="path4263"
             d="m 681.42502,470.48008 86.90313,0 -28.47464,-114.26838 c 0,0 -27.38774,1.57075 -35.87066,10.72422 -24.011,25.90901 -22.55783,103.54416 -22.55783,103.54416 z"
             style="fill:#1a1a1a;stroke:none" />
          <path
             style="fill:#1a1a1a;stroke:none"
             d="m 863.77063,470.48008 -86.90313,0 28.47464,-114.26838 c 0,0 27.38774,1.57075 35.87066,10.72422 24.011,25.90901 22.55783,103.54416 22.55783,103.54416 z"
             id="path4265"
             inkscape:connector-curvature="0"
             sodipodi:nodetypes="cccac" />
          <path
             inkscape:connector-curvature="0"
             id="path4267"
             d="m 772.17582,455.52813 18.81344,-77.23411 -19.80363,-25.2496 -15.84288,27.22998 z"
             style="fill:#37c8ab;stroke:none" />
          <path
             inkscape:connector-curvature="0"
             id="path4269"
             d="m 809.76415,404.2287 39.24928,-1.09025 -17.0807,9.81232 z"
             style="fill:#cccccc;stroke:none" />
        </g>
      </g>
    </g>
  </g>
</svg>
