<?xml version="1.0" encoding="UTF-8" standalone="no"?>
<!-- Created with Inkscape (http://www.inkscape.org/) -->

<svg
   xmlns:dc="http://purl.org/dc/elements/1.1/"
   xmlns:cc="http://creativecommons.org/ns#"
   xmlns:rdf="http://www.w3.org/1999/02/22-rdf-syntax-ns#"
   xmlns:svg="http://www.w3.org/2000/svg"
   xmlns="http://www.w3.org/2000/svg"
   xmlns:sodipodi="http://sodipodi.sourceforge.net/DTD/sodipodi-0.dtd"
   xmlns:inkscape="http://www.inkscape.org/namespaces/inkscape"
   width="200"
   height="200"
   id="svg2"
   version="1.1"
   inkscape:version="0.48.4 r9939"
   sodipodi:docname="box.svg">
  <defs
     id="defs4" />
  <sodipodi:namedview
     id="base"
     pagecolor="#ffffff"
     bordercolor="#666666"
     borderopacity="1.0"
     inkscape:pageopacity="0.0"
     inkscape:pageshadow="2"
     inkscape:zoom="1"
     inkscape:cx="389.13644"
     inkscape:cy="57.124809"
     inkscape:document-units="px"
     inkscape:current-layer="layer1"
     showgrid="false"
     showguides="true"
     inkscape:guide-bbox="true"
     inkscape:window-width="1680"
     inkscape:window-height="995"
     inkscape:window-x="0"
     inkscape:window-y="30"
     inkscape:window-maximized="1"
     fit-margin-top="0"
     fit-margin-left="0"
     fit-margin-right="0"
     fit-margin-bottom="0" />
  <metadata
     id="metadata7">
    <rdf:RDF>
      <cc:Work
         rdf:about="">
        <dc:format>image/svg+xml</dc:format>
        <dc:type
           rdf:resource="http://purl.org/dc/dcmitype/StillImage" />
        <dc:title />
      </cc:Work>
    </rdf:RDF>
  </metadata>
  <g
     inkscape:label="Layer 1"
     inkscape:groupmode="layer"
     id="layer1"
     transform="translate(-151.9805,-138.23177)">
    <g
       id="g2993"
       transform="matrix(0.60334495,0,0,0.60345495,60.283833,134.12414)">
      <path
         transform="matrix(1.2288162,0,0,1.2288162,-34.213261,-77.955268)"
         d="m 421.2336,203.83405 c 0,74.47856 -60.37681,134.85536 -134.85537,134.85536 -74.47855,0 -134.85536,-60.3768 -134.85536,-134.85536 0,-74.47856 60.37681,-134.855367 134.85536,-134.855367 74.47856,0 134.85537,60.376807 134.85537,134.855367 z"
         sodipodi:ry="134.85536"
         sodipodi:rx="134.85536"
         sodipodi:cy="203.83405"
         sodipodi:cx="286.37823"
         id="path3781"
         style="fill:#5fd35f;fill-opacity:1;stroke:none"
         sodipodi:type="arc" />
      <path
         sodipodi:nodetypes="ccccccc"
         transform="translate(151.9805,6.8068557)"
         inkscape:connector-curvature="0"
         id="path4029"
         d="m 45.785164,206.82576 c 41.38543,41.38543 86.645616,86.66771 124.519446,124.54154 51.45932,-1.73301 95.81451,-26.40984 120.28822,-56.70058 26.90492,-29.82998 42.74086,-73.74051 40.71967,-114.8125 C 300.20847,128.75018 264.40254,92.944259 234.87998,63.421698 178.71754,102.43147 113.3799,128.22418 65.5,176.54172 c -8.494367,8.57201 -13.231394,19.1697 -19.714836,30.28404 z"
         style="opacity:0.5;fill:#666666;stroke:none" />
      <path
         inkscape:connector-curvature="0"
         id="path3930"
         d="m 266.17636,274.51975 -34.3444,-101.78465 34.3444,-66.16002 103.03318,0 34.34441,66.16002 -34.34441,101.78465 z"
         style="fill:#c87137;stroke:#000000;stroke-width:0.66103446px;stroke-linecap:butt;stroke-linejoin:miter;stroke-opacity:1" />
      <path
         inkscape:connector-curvature="0"
         id="path3932"
         d="m 231.84484,178.01359 171.69623,0"
         style="fill:none;stroke:#000000;stroke-width:0.68678492px;stroke-linecap:butt;stroke-linejoin:miter;stroke-opacity:1" />
      <path
         inkscape:connector-curvature="0"
         id="path3940"
         d="m 266.18408,106.58795 -17.16962,-36.056206 137.35699,0 -17.16963,36.056206 z"
         style="fill:#c87137;stroke:#000000;stroke-width:0.68678492px;stroke-linecap:butt;stroke-linejoin:miter;stroke-opacity:1" />
      <path
         inkscape:connector-curvature="0"
         id="path3960"
         d="m 266.18408,106.58795 -25.75443,24.38087 -42.92406,82.41419 34.33925,-35.36942 z"
         style="fill:#c87137;stroke:#000000;stroke-width:0.68678492px;stroke-linecap:butt;stroke-linejoin:miter;stroke-opacity:1" />
      <path
         inkscape:connector-curvature="0"
         id="path3962"
         d="m 369.20182,106.58795 25.75444,24.38087 42.92406,82.41419 -34.33925,-35.36942 z"
         style="fill:#c87137;stroke:#000000;stroke-width:0.68678492px;stroke-linecap:butt;stroke-linejoin:miter;stroke-opacity:1" />
      <path
         inkscape:connector-curvature="0"
         id="path3966"
         d="m 403.54107,178.01359 17.16962,48.07494 -206.03548,0 17.16963,-48.07494 z"
         style="fill:#c87137;stroke:#000000;stroke-width:0.68678492px;stroke-linecap:butt;stroke-linejoin:miter;stroke-opacity:1" />
      <path
         inkscape:connector-curvature="0"
         id="path3968"
         d="m 266.18408,106.58795 0,71.42564 103.01774,0 0,-71.42564 z"
         style="fill:#a05a2c;stroke:#000000;stroke-width:0.68678492px;stroke-linecap:butt;stroke-linejoin:miter;stroke-opacity:1" />
      <path
         inkscape:connector-curvature="0"
         id="path3970"
         d="m 369.20182,106.58795 0,71.42564 34.33925,0 z"
         style="fill:#a05a2c;stroke:#000000;stroke-width:0.68678492px;stroke-linecap:butt;stroke-linejoin:miter;stroke-opacity:1" />
      <path
         inkscape:connector-curvature="0"
         id="path3972"
         d="m 266.18408,106.58795 0,71.42564 -34.33924,0 z"
         style="fill:#a05a2c;stroke:#000000;stroke-width:0.68678492px;stroke-linecap:butt;stroke-linejoin:miter;stroke-opacity:1" />
    </g>
  </g>
</svg>
