<?xml version="1.0" encoding="UTF-8" standalone="no"?>
<!-- Created with Inkscape (http://www.inkscape.org/) -->

<svg
   xmlns:dc="http://purl.org/dc/elements/1.1/"
   xmlns:cc="http://creativecommons.org/ns#"
   xmlns:rdf="http://www.w3.org/1999/02/22-rdf-syntax-ns#"
   xmlns:svg="http://www.w3.org/2000/svg"
   xmlns="http://www.w3.org/2000/svg"
   xmlns:sodipodi="http://sodipodi.sourceforge.net/DTD/sodipodi-0.dtd"
   xmlns:inkscape="http://www.inkscape.org/namespaces/inkscape"
   width="200"
   height="200"
   id="svg2"
   version="1.1"
   inkscape:version="0.48.4 r9939"
   sodipodi:docname="calendar.svg">
  <defs
     id="defs4" />
  <sodipodi:namedview
     id="base"
     pagecolor="#ffffff"
     bordercolor="#666666"
     borderopacity="1.0"
     inkscape:pageopacity="0.0"
     inkscape:pageshadow="2"
     inkscape:zoom="1.4142136"
     inkscape:cx="195.3172"
     inkscape:cy="93.884927"
     inkscape:document-units="px"
     inkscape:current-layer="layer1"
     showgrid="false"
     showguides="true"
     inkscape:guide-bbox="true"
     inkscape:window-width="1680"
     inkscape:window-height="995"
     inkscape:window-x="0"
     inkscape:window-y="30"
     inkscape:window-maximized="1"
     fit-margin-top="0"
     fit-margin-left="0"
     fit-margin-right="0"
     fit-margin-bottom="0" />
  <metadata
     id="metadata7">
    <rdf:RDF>
      <cc:Work
         rdf:about="">
        <dc:format>image/svg+xml</dc:format>
        <dc:type
           rdf:resource="http://purl.org/dc/dcmitype/StillImage" />
        <dc:title />
      </cc:Work>
    </rdf:RDF>
  </metadata>
  <g
     inkscape:label="Layer 1"
     inkscape:groupmode="layer"
     id="layer1"
     transform="translate(-151.9805,-138.34857)">
    <g
       id="g3889"
       transform="matrix(0.60345495,0,0,0.60324233,60.267115,134.24239)">
      <path
         transform="matrix(1.2288162,0,0,1.2288162,-34.213261,-77.955268)"
         d="m 421.2336,203.83405 c 0,74.47856 -60.37681,134.85536 -134.85537,134.85536 -74.47855,0 -134.85536,-60.3768 -134.85536,-134.85536 0,-74.47856 60.37681,-134.855367 134.85536,-134.855367 74.47856,0 134.85537,60.376807 134.85537,134.855367 z"
         sodipodi:ry="134.85536"
         sodipodi:rx="134.85536"
         sodipodi:cy="203.83405"
         sodipodi:cx="286.37823"
         id="path3781"
         style="fill:#00aad4;fill-opacity:1;stroke:none"
         sodipodi:type="arc" />
      <path
         sodipodi:nodetypes="cccccccc"
         inkscape:connector-curvature="0"
         id="path3843"
         d="m 231.82227,261.37976 c 32.62552,32.62552 50.71195,50.71196 76.59571,76.59571 48.18589,3.42417 97.21,-16.92539 131.58202,-52.61328 24.27871,-27.31917 42.09738,-66.14784 43.39443,-105.39444 -32.73049,-32.73048 -64.96199,-64.96198 -96.25,-96.249997 -3.77347,2.595789 -2.33521,10.851496 -3.14443,16.144433 -6.08729,39.815904 16.42601,89.260934 -9,120.500004 -31.3391,38.50404 -86.54736,16.2892 -143.17773,41.01757 z"
         style="opacity:0.5;fill:#666666;stroke:none" />
      <path
         sodipodi:nodetypes="cccc"
         inkscape:connector-curvature="0"
         id="path3845"
         d="m 353.49569,83.656579 21.97996,21.979961 -23.10065,0.35065 z"
         style="opacity:0.5;fill:#666666;stroke:none" />
      <path
         style="opacity:0.5;fill:#666666;stroke:none"
         d="m 318.87795,83.661778 21.97996,21.979962 -23.10065,0.35065 z"
         id="path3847"
         inkscape:connector-curvature="0"
         sodipodi:nodetypes="cccc" />
      <path
         sodipodi:nodetypes="cccc"
         inkscape:connector-curvature="0"
         id="path3849"
         d="m 285.12795,83.661778 21.97996,21.979962 -23.10065,0.35065 z"
         style="opacity:0.5;fill:#666666;stroke:none" />
      <path
         style="opacity:0.5;fill:#666666;stroke:none"
         d="m 254.44402,83.652125 21.97996,21.979965 -23.10065,0.35065 z"
         id="path3851"
         inkscape:connector-curvature="0"
         sodipodi:nodetypes="cccc" />
      <g
         transform="matrix(0.87668067,0,0,0.87668067,158.7311,-252.03097)"
         id="g3815">
        <rect
           style="fill:#f2f2f2;fill-opacity:1;stroke:none"
           id="rect3011"
           width="195.89217"
           height="182.25511"
           x="83.376328"
           y="403.3779" />
        <g
           id="g2992"
           transform="matrix(3.5847227,0,0,3.5847227,63.86716,374.92931)"
           style="fill:#808080">
          <polygon
             style="fill:#808080"
             points="45.101,31.053 29.972,44.621 21.065,35.584 19.608,37.024 29.882,47.449 46.468,32.576 "
             id="polygon2994" />
        </g>
        <rect
           y="403.38342"
           x="83.897308"
           height="44.403297"
           width="195.11806"
           id="rect3783"
           style="fill:#55ff55;fill-opacity:1;stroke:none" />
        <rect
           style="fill:#808080;fill-opacity:1;stroke:none"
           id="rect3787"
           width="7.0710678"
           height="34.450882"
           x="102.10155"
           y="382.90729" />
        <rect
           y="382.90729"
           x="253.60155"
           height="34.419048"
           width="7.0710678"
           id="rect3793"
           style="fill:#808080;fill-opacity:1;stroke:none" />
        <rect
           y="382.90729"
           x="175.60155"
           height="34.419048"
           width="7.0710678"
           id="rect3795"
           style="fill:#808080;fill-opacity:1;stroke:none" />
        <rect
           style="fill:#808080;fill-opacity:1;stroke:none"
           id="rect3797"
           width="7.0710678"
           height="34.419048"
           x="137.10155"
           y="382.90729" />
        <rect
           y="382.90729"
           x="215.10155"
           height="34.419048"
           width="7.0710678"
           id="rect3799"
           style="fill:#808080;fill-opacity:1;stroke:none" />
        <rect
           y="382.90729"
           x="102.10155"
           height="17.888382"
           width="7.0710678"
           id="rect3803"
           style="fill:#cccccc;fill-opacity:1;stroke:none" />
        <rect
           y="382.90729"
           x="137.10155"
           height="17.856548"
           width="7.0710678"
           id="rect3807"
           style="fill:#cccccc;fill-opacity:1;stroke:none" />
        <rect
           style="fill:#cccccc;fill-opacity:1;stroke:none"
           id="rect3809"
           width="7.0710678"
           height="17.919048"
           x="175.60155"
           y="382.90729" />
        <rect
           style="fill:#cccccc;fill-opacity:1;stroke:none"
           id="rect3811"
           width="7.0710678"
           height="17.919048"
           x="215.10155"
           y="382.90729" />
        <rect
           style="fill:#cccccc;fill-opacity:1;stroke:none"
           id="rect3813"
           width="7.0710678"
           height="17.919048"
           x="253.60155"
           y="382.90729" />
      </g>
    </g>
  </g>
</svg>
