<?xml version="1.0" encoding="UTF-8" standalone="no"?>
<!-- Created with Inkscape (http://www.inkscape.org/) -->

<svg
   xmlns:dc="http://purl.org/dc/elements/1.1/"
   xmlns:cc="http://creativecommons.org/ns#"
   xmlns:rdf="http://www.w3.org/1999/02/22-rdf-syntax-ns#"
   xmlns:svg="http://www.w3.org/2000/svg"
   xmlns="http://www.w3.org/2000/svg"
   xmlns:sodipodi="http://sodipodi.sourceforge.net/DTD/sodipodi-0.dtd"
   xmlns:inkscape="http://www.inkscape.org/namespaces/inkscape"
   width="200"
   height="200"
   id="svg2"
   version="1.1"
   inkscape:version="0.48.4 r9939"
   sodipodi:docname="energy-research.svg">
  <defs
     id="defs4" />
  <sodipodi:namedview
     id="base"
     pagecolor="#ffffff"
     bordercolor="#666666"
     borderopacity="1.0"
     inkscape:pageopacity="0.0"
     inkscape:pageshadow="2"
     inkscape:zoom="1"
     inkscape:cx="-11.861684"
     inkscape:cy="123.8524"
     inkscape:document-units="px"
     inkscape:current-layer="layer1"
     showgrid="false"
     showguides="true"
     inkscape:guide-bbox="true"
     inkscape:window-width="1680"
     inkscape:window-height="995"
     inkscape:window-x="0"
     inkscape:window-y="30"
     inkscape:window-maximized="1"
     fit-margin-top="0"
     fit-margin-left="0"
     fit-margin-right="0"
     fit-margin-bottom="0" />
  <metadata
     id="metadata7">
    <rdf:RDF>
      <cc:Work
         rdf:about="">
        <dc:format>image/svg+xml</dc:format>
        <dc:type
           rdf:resource="http://purl.org/dc/dcmitype/StillImage" />
        <dc:title />
      </cc:Work>
    </rdf:RDF>
  </metadata>
  <g
     inkscape:label="Layer 1"
     inkscape:groupmode="layer"
     id="layer1"
     transform="translate(-151.9805,-138.23176)">
    <g
       id="g4260"
       transform="matrix(0.60345495,0,0,0.60345495,60.267115,134.12413)">
      <path
         transform="matrix(1.2288162,0,0,1.2288162,-34.213261,-77.955268)"
         d="m 421.2336,203.83405 c 0,74.47856 -60.37681,134.85536 -134.85537,134.85536 -74.47855,0 -134.85536,-60.3768 -134.85536,-134.85536 0,-74.47856 60.37681,-134.855367 134.85536,-134.855367 74.47856,0 134.85537,60.376807 134.85537,134.855367 z"
         sodipodi:ry="134.85536"
         sodipodi:rx="134.85536"
         sodipodi:cy="203.83405"
         sodipodi:cx="286.37823"
         id="path3781"
         style="fill:#c83771;fill-opacity:1;stroke:none"
         sodipodi:type="arc" />
      <path
         sodipodi:nodetypes="cccccccc"
         transform="translate(151.9805,6.8068557)"
         inkscape:connector-curvature="0"
         id="path4258"
         d="m 70.533903,224.59182 c 0,0 74.383557,74.38356 106.596347,106.59634 19.47663,-1.55796 43.6643,-7.24103 62.8504,-17.44543 17.86356,-8.94247 36.4776,-22.69068 49.7297,-38.30877 13.32306,-15.306 21.21947,-28.18493 29.3627,-46.9509 5.5771,-14.50318 10.69826,-30.38447 11.69825,-51.64305 -23.31563,-23.31563 -70.01462,-70.01462 -70.01462,-70.01462 z"
         style="opacity:0.5;fill:#666666;stroke:none" />
      <g
         transform="translate(-1.285425,2.8157073)"
         id="g4244">
        <rect
           style="fill:#f9cf24;fill-opacity:1;stroke:none"
           id="rect4188"
           width="189.74594"
           height="118.08683"
           x="224.10541"
           y="110.66019"
           ry="0" />
        <g
           id="g4236">
          <path
             inkscape:connector-curvature="0"
             id="path4190"
             d="m 242.1885,170.02579 35.57737,35.06332 47.87571,-51.99044 25.03593,27.40581 49.19339,-37.48148"
             style="fill:none;stroke:#000000;stroke-width:0.59501278px;stroke-linecap:butt;stroke-linejoin:miter;stroke-opacity:1" />
          <path
             transform="matrix(0.6211604,0,0,0.56996586,-55.167992,80.202903)"
             d="m 491.43922,158.65411 c 0,5.27208 -4.27386,9.54595 -9.54594,9.54595 -5.27208,0 -9.54594,-4.27387 -9.54594,-9.54595 0,-5.27207 4.27386,-9.54594 9.54594,-9.54594 5.27208,0 9.54594,4.27387 9.54594,9.54594 z"
             sodipodi:ry="9.5459414"
             sodipodi:rx="9.5459414"
             sodipodi:cy="158.65411"
             sodipodi:cx="481.89328"
             id="path4192"
             style="fill:#c83737;fill-opacity:1;stroke:#000000;stroke-opacity:1"
             sodipodi:type="arc" />
          <path
             sodipodi:type="arc"
             style="fill:#c83737;fill-opacity:1;stroke:#000000;stroke-opacity:1"
             id="path4194"
             sodipodi:cx="481.89328"
             sodipodi:cy="158.65411"
             sodipodi:rx="9.5459414"
             sodipodi:ry="9.5459414"
             d="m 491.43922,158.65411 c 0,5.27208 -4.27386,9.54595 -9.54594,9.54595 -5.27208,0 -9.54594,-4.27387 -9.54594,-9.54595 0,-5.27207 4.27386,-9.54594 9.54594,-9.54594 5.27208,0 9.54594,4.27387 9.54594,9.54594 z"
             transform="matrix(0.6211604,0,0,0.56996586,-21.786758,112.44504)" />
          <path
             transform="matrix(0.6211604,0,0,0.56996586,26.528185,63.678808)"
             d="m 491.43922,158.65411 c 0,5.27208 -4.27386,9.54595 -9.54594,9.54595 -5.27208,0 -9.54594,-4.27387 -9.54594,-9.54595 0,-5.27207 4.27386,-9.54594 9.54594,-9.54594 5.27208,0 9.54594,4.27387 9.54594,9.54594 z"
             sodipodi:ry="9.5459414"
             sodipodi:rx="9.5459414"
             sodipodi:cy="158.65411"
             sodipodi:cx="481.89328"
             id="path4196"
             style="fill:#c83737;fill-opacity:1;stroke:#000000;stroke-opacity:1"
             sodipodi:type="arc" />
          <path
             sodipodi:type="arc"
             style="fill:#c83737;fill-opacity:1;stroke:#000000;stroke-opacity:1"
             id="path4198"
             sodipodi:cx="481.89328"
             sodipodi:cy="158.65411"
             sodipodi:rx="9.5459414"
             sodipodi:ry="9.5459414"
             d="m 491.43922,158.65411 c 0,5.27208 -4.27386,9.54595 -9.54594,9.54595 -5.27208,0 -9.54594,-4.27387 -9.54594,-9.54595 0,-5.27207 4.27386,-9.54594 9.54594,-9.54594 5.27208,0 9.54594,4.27387 9.54594,9.54594 z"
             transform="matrix(0.6211604,0,0,0.56996586,52.442562,88.263438)" />
          <path
             transform="matrix(0.6211604,0,0,0.56996586,96.804459,54.81222)"
             d="m 491.43922,158.65411 c 0,5.27208 -4.27386,9.54595 -9.54594,9.54595 -5.27208,0 -9.54594,-4.27387 -9.54594,-9.54595 0,-5.27207 4.27386,-9.54594 9.54594,-9.54594 5.27208,0 9.54594,4.27387 9.54594,9.54594 z"
             sodipodi:ry="9.5459414"
             sodipodi:rx="9.5459414"
             sodipodi:cy="158.65411"
             sodipodi:cx="481.89328"
             id="path4200"
             style="fill:#c83737;fill-opacity:1;stroke:#000000;stroke-opacity:1"
             sodipodi:type="arc" />
        </g>
      </g>
    </g>
  </g>
</svg>
