<?xml version="1.0" encoding="UTF-8" standalone="no"?>
<!-- Created with Inkscape (http://www.inkscape.org/) -->

<svg
   xmlns:dc="http://purl.org/dc/elements/1.1/"
   xmlns:cc="http://creativecommons.org/ns#"
   xmlns:rdf="http://www.w3.org/1999/02/22-rdf-syntax-ns#"
   xmlns:svg="http://www.w3.org/2000/svg"
   xmlns="http://www.w3.org/2000/svg"
   xmlns:sodipodi="http://sodipodi.sourceforge.net/DTD/sodipodi-0.dtd"
   xmlns:inkscape="http://www.inkscape.org/namespaces/inkscape"
   width="200"
   height="200"
   id="svg2"
   version="1.1"
   inkscape:version="0.48.4 r9939"
   sodipodi:docname="solar-solution.svg">
  <defs
     id="defs4" />
  <sodipodi:namedview
     id="base"
     pagecolor="#ffffff"
     bordercolor="#666666"
     borderopacity="1.0"
     inkscape:pageopacity="0.0"
     inkscape:pageshadow="2"
     inkscape:zoom="1"
     inkscape:cx="103.46828"
     inkscape:cy="69.047242"
     inkscape:document-units="px"
     inkscape:current-layer="layer1"
     showgrid="false"
     showguides="true"
     inkscape:guide-bbox="true"
     inkscape:window-width="1680"
     inkscape:window-height="995"
     inkscape:window-x="0"
     inkscape:window-y="30"
     inkscape:window-maximized="1"
     fit-margin-top="0"
     fit-margin-left="0"
     fit-margin-right="0"
     fit-margin-bottom="0">
    <sodipodi:guide
       orientation="1,0"
       position="499.92449,-150.02345"
       id="guide4257" />
    <sodipodi:guide
       orientation="1,0"
       position="397.39401,188.6807"
       id="guide4259" />
    <sodipodi:guide
       orientation="0,1"
       position="548.00775,-150.02345"
       id="guide4261" />
  </sodipodi:namedview>
  <metadata
     id="metadata7">
    <rdf:RDF>
      <cc:Work
         rdf:about="">
        <dc:format>image/svg+xml</dc:format>
        <dc:type
           rdf:resource="http://purl.org/dc/dcmitype/StillImage" />
        <dc:title />
      </cc:Work>
    </rdf:RDF>
  </metadata>
  <g
     inkscape:label="Layer 1"
     inkscape:groupmode="layer"
     id="layer1"
     transform="translate(-151.9805,-138.23176)">
    <g
       id="g3301"
       transform="matrix(0.60345495,0,0,0.60345495,60.267115,134.12413)">
      <path
         transform="matrix(1.2288162,0,0,1.2288162,-34.213261,-77.955268)"
         d="m 421.2336,203.83405 c 0,74.47856 -60.37681,134.85536 -134.85537,134.85536 -74.47855,0 -134.85536,-60.3768 -134.85536,-134.85536 0,-74.47856 60.37681,-134.855367 134.85536,-134.855367 74.47856,0 134.85537,60.376807 134.85537,134.855367 z"
         sodipodi:ry="134.85536"
         sodipodi:rx="134.85536"
         sodipodi:cy="203.83405"
         sodipodi:cx="286.37823"
         id="path3781"
         style="fill:#aad400;fill-opacity:1;stroke:none"
         sodipodi:type="arc" />
      <path
         sodipodi:nodetypes="ccaccccc"
         transform="translate(151.9805,6.8068557)"
         inkscape:connector-curvature="0"
         id="path3932"
         d="m 100.75,249.29172 c 0,0 57.80887,57.80887 81.79,81.79 34.18447,-5.27508 59.93149,-15.64823 84.03925,-33.83469 21.9738,-16.57663 41.26265,-40.36341 50.69019,-65.18587 -35.9617,-35.9617 -127.63277,-127.63277 -127.63277,-127.63277 l -43.3802,37.36979 32.35013,32.35014 z"
         style="opacity:0.5;fill:#666666;stroke:none" />
      <g
         transform="translate(-11.463761,4.3992895)"
         id="g3890">
        <g
           id="g3838"
           transform="matrix(0.50402597,0,0,0.50402597,-216.44157,81.257826)">
          <path
             inkscape:connector-curvature="0"
             id="path3019"
             d="m 953.9805,337.34858 257,1 -13,-151 -236,1 z"
             style="fill:#000055;stroke:#000000;stroke-width:1px;stroke-linecap:butt;stroke-linejoin:miter;stroke-opacity:1" />
          <path
             sodipodi:nodetypes="cc"
             transform="translate(151.9805,6.8068557)"
             inkscape:connector-curvature="0"
             id="path3023"
             d="m 803.5,299.79172 252.75,-0.25"
             style="fill:none;stroke:#000000;stroke-width:1px;stroke-linecap:butt;stroke-linejoin:miter;stroke-opacity:1" />
          <path
             sodipodi:nodetypes="cc"
             transform="translate(151.9805,6.8068557)"
             inkscape:connector-curvature="0"
             id="path3025"
             d="m 804.75,270.79172 248.5,-2.25"
             style="fill:none;stroke:#000000;stroke-width:1px;stroke-linecap:butt;stroke-linejoin:miter;stroke-opacity:1" />
          <path
             sodipodi:nodetypes="cc"
             transform="translate(151.9805,6.8068557)"
             inkscape:connector-curvature="0"
             id="path3027"
             d="m 807,241.79172 244.25,-2.25"
             style="fill:none;stroke:#000000;stroke-width:1px;stroke-linecap:butt;stroke-linejoin:miter;stroke-opacity:1" />
          <path
             sodipodi:nodetypes="cc"
             transform="translate(151.9805,6.8068557)"
             inkscape:connector-curvature="0"
             id="path3029"
             d="m 808.25,210.54172 240,-2"
             style="fill:none;stroke:#000000;stroke-width:1px;stroke-linecap:butt;stroke-linejoin:miter;stroke-opacity:1" />
          <path
             style="fill:none;stroke:#000000;stroke-width:1px;stroke-linecap:butt;stroke-linejoin:miter;stroke-opacity:1"
             d="m 1011.4418,338.30741 5.5774,-150.91766"
             id="path3033"
             inkscape:connector-curvature="0" />
          <path
             inkscape:connector-curvature="0"
             id="path3035"
             d="m 1152.1018,338.25962 -7.7426,-150.82208"
             style="fill:none;stroke:#000000;stroke-width:1px;stroke-linecap:butt;stroke-linejoin:miter;stroke-opacity:1" />
          <path
             transform="matrix(1.2631579,0,0,1.2631579,-183.8353,44.822198)"
             d="m 953,135.79172 c 0,1.51878 -1.23122,2.75 -2.75,2.75 -1.51878,0 -2.75,-1.23122 -2.75,-2.75 0,-1.51879 1.23122,-2.75 2.75,-2.75 1.51878,0 2.75,1.23121 2.75,2.75 z"
             sodipodi:ry="2.75"
             sodipodi:rx="2.75"
             sodipodi:cy="135.79172"
             sodipodi:cx="950.25"
             id="path3037"
             style="fill:#000000;fill-opacity:1;stroke:#000000;stroke-width:4;stroke-opacity:1"
             sodipodi:type="arc" />
          <path
             sodipodi:type="arc"
             style="fill:#000000;fill-opacity:1;stroke:#000000;stroke-width:4;stroke-opacity:1"
             id="path3807"
             sodipodi:cx="950.25"
             sodipodi:cy="135.79172"
             sodipodi:rx="2.75"
             sodipodi:ry="2.75"
             d="m 953,135.79172 c 0,1.51878 -1.23122,2.75 -2.75,2.75 -1.51878,0 -2.75,-1.23122 -2.75,-2.75 0,-1.51879 1.23122,-2.75 2.75,-2.75 1.51878,0 2.75,1.23121 2.75,2.75 z"
             transform="matrix(1.2631579,0,0,1.2631579,-185.3353,75.322198)" />
          <path
             transform="matrix(1.2631579,0,0,1.2631579,-186.8353,104.8222)"
             d="m 953,135.79172 c 0,1.51878 -1.23122,2.75 -2.75,2.75 -1.51878,0 -2.75,-1.23122 -2.75,-2.75 0,-1.51879 1.23122,-2.75 2.75,-2.75 1.51878,0 2.75,1.23121 2.75,2.75 z"
             sodipodi:ry="2.75"
             sodipodi:rx="2.75"
             sodipodi:cy="135.79172"
             sodipodi:cx="950.25"
             id="path3809"
             style="fill:#000000;fill-opacity:1;stroke:#000000;stroke-width:4;stroke-opacity:1"
             sodipodi:type="arc" />
          <path
             sodipodi:type="arc"
             style="fill:#000000;fill-opacity:1;stroke:#000000;stroke-width:4;stroke-opacity:1"
             id="path3811"
             sodipodi:cx="950.25"
             sodipodi:cy="135.79172"
             sodipodi:rx="2.75"
             sodipodi:ry="2.75"
             d="m 953,135.79172 c 0,1.51878 -1.23122,2.75 -2.75,2.75 -1.51878,0 -2.75,-1.23122 -2.75,-2.75 0,-1.51879 1.23122,-2.75 2.75,-2.75 1.51878,0 2.75,1.23121 2.75,2.75 z"
             transform="matrix(1.2631579,0,0,1.2631579,-187.8353,135.3222)" />
          <path
             sodipodi:type="arc"
             style="fill:#000000;fill-opacity:1;stroke:#000000;stroke-width:4;stroke-opacity:1"
             id="path3815"
             sodipodi:cx="950.25"
             sodipodi:cy="135.79172"
             sodipodi:rx="2.75"
             sodipodi:ry="2.75"
             d="m 953,135.79172 c 0,1.51878 -1.23122,2.75 -2.75,2.75 -1.51878,0 -2.75,-1.23122 -2.75,-2.75 0,-1.51879 1.23122,-2.75 2.75,-2.75 1.51878,0 2.75,1.23121 2.75,2.75 z"
             transform="matrix(1.2631579,0,0,1.2631579,-49.3353,135.3222)" />
          <path
             transform="matrix(1.2631579,0,0,1.2631579,-51.3353,103.8222)"
             d="m 953,135.79172 c 0,1.51878 -1.23122,2.75 -2.75,2.75 -1.51878,0 -2.75,-1.23122 -2.75,-2.75 0,-1.51879 1.23122,-2.75 2.75,-2.75 1.51878,0 2.75,1.23121 2.75,2.75 z"
             sodipodi:ry="2.75"
             sodipodi:rx="2.75"
             sodipodi:cy="135.79172"
             sodipodi:cx="950.25"
             id="path3817"
             style="fill:#000000;fill-opacity:1;stroke:#000000;stroke-width:4;stroke-opacity:1"
             sodipodi:type="arc" />
          <g
             transform="translate(6.5,0.5)"
             id="g3831">
            <path
               style="fill:none;stroke:#000000;stroke-width:1px;stroke-linecap:butt;stroke-linejoin:miter;stroke-opacity:1"
               d="m 1078.4805,338.34858 -2.5,-151"
               id="path3031"
               inkscape:connector-curvature="0" />
            <path
               sodipodi:type="arc"
               style="fill:#000000;fill-opacity:1;stroke:#000000;stroke-width:4;stroke-opacity:1"
               id="path3813"
               sodipodi:cx="950.25"
               sodipodi:cy="135.79172"
               sodipodi:rx="2.75"
               sodipodi:ry="2.75"
               d="m 953,135.79172 c 0,1.51878 -1.23122,2.75 -2.75,2.75 -1.51878,0 -2.75,-1.23122 -2.75,-2.75 0,-1.51879 1.23122,-2.75 2.75,-2.75 1.51878,0 2.75,1.23121 2.75,2.75 z"
               transform="matrix(1.2631579,0,0,1.2631579,-121.8353,134.8222)" />
            <path
               transform="matrix(1.2631579,0,0,1.2631579,-122.8353,105.3222)"
               d="m 953,135.79172 c 0,1.51878 -1.23122,2.75 -2.75,2.75 -1.51878,0 -2.75,-1.23122 -2.75,-2.75 0,-1.51879 1.23122,-2.75 2.75,-2.75 1.51878,0 2.75,1.23121 2.75,2.75 z"
               sodipodi:ry="2.75"
               sodipodi:rx="2.75"
               sodipodi:cy="135.79172"
               sodipodi:cx="950.25"
               id="path3819"
               style="fill:#000000;fill-opacity:1;stroke:#000000;stroke-width:4;stroke-opacity:1"
               sodipodi:type="arc" />
            <path
               sodipodi:type="arc"
               style="fill:#000000;fill-opacity:1;stroke:#000000;stroke-width:4;stroke-opacity:1"
               id="path3821"
               sodipodi:cx="950.25"
               sodipodi:cy="135.79172"
               sodipodi:rx="2.75"
               sodipodi:ry="2.75"
               d="m 953,135.79172 c 0,1.51878 -1.23122,2.75 -2.75,2.75 -1.51878,0 -2.75,-1.23122 -2.75,-2.75 0,-1.51879 1.23122,-2.75 2.75,-2.75 1.51878,0 2.75,1.23121 2.75,2.75 z"
               transform="matrix(1.2631579,0,0,1.2631579,-123.3353,76.3222)" />
            <path
               transform="matrix(1.2631579,0,0,1.2631579,-123.8353,45.8222)"
               d="m 953,135.79172 c 0,1.51878 -1.23122,2.75 -2.75,2.75 -1.51878,0 -2.75,-1.23122 -2.75,-2.75 0,-1.51879 1.23122,-2.75 2.75,-2.75 1.51878,0 2.75,1.23121 2.75,2.75 z"
               sodipodi:ry="2.75"
               sodipodi:rx="2.75"
               sodipodi:cy="135.79172"
               sodipodi:cx="950.25"
               id="path3823"
               style="fill:#000000;fill-opacity:1;stroke:#000000;stroke-width:4;stroke-opacity:1"
               sodipodi:type="arc" />
          </g>
          <path
             transform="matrix(1.2631579,0,0,1.2631579,-53.8353,45.3222)"
             d="m 953,135.79172 c 0,1.51878 -1.23122,2.75 -2.75,2.75 -1.51878,0 -2.75,-1.23122 -2.75,-2.75 0,-1.51879 1.23122,-2.75 2.75,-2.75 1.51878,0 2.75,1.23121 2.75,2.75 z"
             sodipodi:ry="2.75"
             sodipodi:rx="2.75"
             sodipodi:cy="135.79172"
             sodipodi:cx="950.25"
             id="path3825"
             style="fill:#000000;fill-opacity:1;stroke:#000000;stroke-width:4;stroke-opacity:1"
             sodipodi:type="arc" />
          <path
             sodipodi:type="arc"
             style="fill:#000000;fill-opacity:1;stroke:#000000;stroke-width:4;stroke-opacity:1"
             id="path3827"
             sodipodi:cx="950.25"
             sodipodi:cy="135.79172"
             sodipodi:rx="2.75"
             sodipodi:ry="2.75"
             d="m 953,135.79172 c 0,1.51878 -1.23122,2.75 -2.75,2.75 -1.51878,0 -2.75,-1.23122 -2.75,-2.75 0,-1.51879 1.23122,-2.75 2.75,-2.75 1.51878,0 2.75,1.23121 2.75,2.75 z"
             transform="matrix(1.2631579,0,0,1.2631579,-51.8353,74.3222)" />
        </g>
        <g
           id="g3879"
           transform="matrix(1.0759309,0,0,1.0759309,-13.575918,-12.460157)">
          <path
             transform="matrix(0.5,0,0,0.5,-54.0195,47.577715)"
             d="m 800,158.54172 c 0,29.27109 -23.72891,53 -53,53 -29.27109,0 -53,-23.72891 -53,-53 0,-29.27109 23.72891,-53 53,-53 29.27109,0 53,23.72891 53,53 z"
             sodipodi:ry="53"
             sodipodi:rx="53"
             sodipodi:cy="158.54172"
             sodipodi:cx="747"
             id="path3861"
             style="fill:#ffcc00;fill-opacity:1;stroke:none"
             sodipodi:type="arc" />
          <path
             transform="translate(151.9805,6.8068557)"
             inkscape:connector-curvature="0"
             id="path3863"
             d="m 167.5,148.54172 -0.25,8.25"
             style="fill:none;stroke:#000000;stroke-width:1px;stroke-linecap:butt;stroke-linejoin:miter;stroke-opacity:1" />
          <path
             transform="translate(151.9805,6.8068557)"
             inkscape:connector-curvature="0"
             id="path3865"
             d="m 169.25,91.791717 0,-8.5 0,0"
             style="fill:none;stroke:#000000;stroke-width:1px;stroke-linecap:butt;stroke-linejoin:miter;stroke-opacity:1" />
          <path
             transform="translate(151.9805,6.8068557)"
             inkscape:connector-curvature="0"
             id="path3867"
             d="m 195.75,121.79172 8.25,0"
             style="fill:none;stroke:#000000;stroke-width:1px;stroke-linecap:butt;stroke-linejoin:miter;stroke-opacity:1" />
          <path
             transform="translate(151.9805,6.8068557)"
             inkscape:connector-curvature="0"
             id="path3869"
             d="m 138.5,120.54172 -8.75,0.5"
             style="fill:none;stroke:#000000;stroke-width:1px;stroke-linecap:butt;stroke-linejoin:miter;stroke-opacity:1" />
          <path
             transform="translate(151.9805,6.8068557)"
             inkscape:connector-curvature="0"
             id="path3871"
             d="m 146.5,100.79172 -5.75,-4.750003"
             style="fill:none;stroke:#000000;stroke-width:1px;stroke-linecap:butt;stroke-linejoin:miter;stroke-opacity:1" />
          <path
             inkscape:connector-curvature="0"
             id="path3873"
             d="m 341.4805,109.84858 7.5,-5.75"
             style="fill:none;stroke:#000000;stroke-width:1px;stroke-linecap:butt;stroke-linejoin:miter;stroke-opacity:1" />
          <path
             inkscape:connector-curvature="0"
             id="path3875"
             d="m 339.06615,148.43423 6.3287,6.82869"
             style="fill:none;stroke:#000000;stroke-width:1.17130649px;stroke-linecap:butt;stroke-linejoin:miter;stroke-opacity:1" />
          <path
             transform="translate(151.9805,6.8068557)"
             inkscape:connector-curvature="0"
             id="path3877"
             d="m 146.5,140.29172 -6.75,7.25"
             style="fill:none;stroke:#000000;stroke-width:1px;stroke-linecap:butt;stroke-linejoin:miter;stroke-opacity:1" />
        </g>
      </g>
    </g>
  </g>
</svg>
